<svg xmlns="http://www.w3.org/2000/svg" xmlns:svg="http://www.w3.org/2000/svg" id="svg17226" width="128" height="128" version="1.1" viewBox="0 0 128 128"><defs id="defs17220"><linearGradient id="_Linear1" x1="0" x2="1" y1="0" y2="0" gradientTransform="matrix(137.32,719.201,-719.201,137.32,-12.7656,-459.807)" gradientUnits="userSpaceOnUse"><stop offset="0%" style="stop-color:#fff;stop-opacity:1" id="stop9052"/><stop offset="34%" style="stop-color:#fff;stop-opacity:1" id="stop9054"/><stop offset="51%" style="stop-color:#bebdf3;stop-opacity:1" id="stop9056"/><stop offset="75%" style="stop-color:#867fb7;stop-opacity:1" id="stop9058"/><stop offset="87%" style="stop-color:#9f99c7;stop-opacity:1" id="stop9060"/><stop offset="100%" style="stop-color:#524c76;stop-opacity:1" id="stop9062"/></linearGradient><linearGradient id="_Linear2" x1="0" x2="1" y1="0" y2="0" gradientTransform="matrix(-41.4782,-185.977,185.977,-41.4782,156.163,202.263)" gradientUnits="userSpaceOnUse"><stop offset="0%" style="stop-color:#fff;stop-opacity:1" id="stop9065"/><stop offset="34%" style="stop-color:#fff;stop-opacity:1" id="stop9067"/><stop offset="51%" style="stop-color:#bebbdb;stop-opacity:1" id="stop9069"/><stop offset="75%" style="stop-color:#928bbe;stop-opacity:1" id="stop9071"/><stop offset="87%" style="stop-color:#9f99c7;stop-opacity:1" id="stop9073"/><stop offset="100%" style="stop-color:#524c76;stop-opacity:1" id="stop9075"/></linearGradient><radialGradient id="_Radial3" cx="0" cy="0" r="1" gradientTransform="matrix(36.9132,0,0,28.2927,107.505,89.2005)" gradientUnits="userSpaceOnUse"><stop offset="0%" style="stop-color:#fff;stop-opacity:1" id="stop9078"/><stop offset="34%" style="stop-color:#fff;stop-opacity:1" id="stop9080"/><stop offset="51%" style="stop-color:#bebbdb;stop-opacity:1" id="stop9082"/><stop offset="75%" style="stop-color:#928bbe;stop-opacity:1" id="stop9084"/><stop offset="87%" style="stop-color:#9f99c7;stop-opacity:1" id="stop9086"/><stop offset="100%" style="stop-color:#524c76;stop-opacity:1" id="stop9088"/></radialGradient><radialGradient id="_Radial4" cx="0" cy="0" r="1" gradientTransform="matrix(-5.06038,321.086,-273.845,-4.31164,23.522,98.2549)" gradientUnits="userSpaceOnUse"><stop offset="0%" style="stop-color:#fff;stop-opacity:1" id="stop9091"/><stop offset="34%" style="stop-color:#fff;stop-opacity:1" id="stop9093"/><stop offset="51%" style="stop-color:#bebbdb;stop-opacity:1" id="stop9095"/><stop offset="75%" style="stop-color:#928bbe;stop-opacity:1" id="stop9097"/><stop offset="87%" style="stop-color:#9f99c7;stop-opacity:1" id="stop9099"/><stop offset="100%" style="stop-color:#524c76;stop-opacity:1" id="stop9101"/></radialGradient><clipPath id="clipPath4429"><g id="g4431" transform="matrix(0.9947658,0,0,1,1.7860989,0)"><path id="path4433" d="m 322.54143,2800.9375 -4.43505,5.7298 -4.43495,-5.7298 v -43.1429 h -18.93972 l 23.37467,-25.5367 23.13125,25.5367 h -18.6962 z" style="display:inline;overflow:visible;visibility:visible;fill:#efa724;fill-opacity:1;fill-rule:evenodd;stroke:none;stroke-width:30;marker:none"/></g></clipPath><clipPath id="clipPath955"><g id="g953" transform="matrix(0.9947658,0,0,1,1.7860989,0)"><path id="path951" d="m 322.54143,2800.9375 -4.43505,5.7298 -4.43495,-5.7298 v -43.1429 h -18.93972 l 23.37467,-25.5367 23.13125,25.5367 h -18.6962 z" style="display:inline;overflow:visible;visibility:visible;fill:#efa724;fill-opacity:1;fill-rule:evenodd;stroke:none;stroke-width:30;marker:none"/></g></clipPath><clipPath id="clipPath961"><g id="g959" transform="matrix(0.9947658,0,0,1,1.7860989,0)"><path id="path957" d="m 322.54143,2800.9375 -4.43505,5.7298 -4.43495,-5.7298 v -43.1429 h -18.93972 l 23.37467,-25.5367 23.13125,25.5367 h -18.6962 z" style="display:inline;overflow:visible;visibility:visible;fill:#efa724;fill-opacity:1;fill-rule:evenodd;stroke:none;stroke-width:30;marker:none"/></g></clipPath><clipPath id="clipPath967"><g id="g965" transform="matrix(0.9947658,0,0,1,1.7860989,0)"><path id="path963" d="m 322.54143,2800.9375 -4.43505,5.7298 -4.43495,-5.7298 v -43.1429 h -18.93972 l 23.37467,-25.5367 23.13125,25.5367 h -18.6962 z" style="display:inline;overflow:visible;visibility:visible;fill:#efa724;fill-opacity:1;fill-rule:evenodd;stroke:none;stroke-width:30;marker:none"/></g></clipPath></defs><metadata id="metadata17223"/><g id="layer1" transform="translate(0,-994.5197)"><g id="g938" transform="matrix(0.69955361,0,0,0.699556,80.015669,352.62013)" style="stroke-width:1.52048886"><g id="g890" transform="rotate(-90,-298.5197,1636.0002)" style="stroke-width:1.52048886"><g id="g888" transform="translate(16.279512,-899.16723)" style="stroke-width:1.52048886"><g id="g884" transform="matrix(1.0666663,0,0,1,-26.935596,-4.1328125e-5)" style="stroke-width:1.52048886"><path id="path882" d="m 323.36653,2798.1614 -5.40616,5.8005 -5.40616,-5.8005 v -40.8261 h -18.01333 l 23.41949,-24.8979 23.02487,24.8979 h -17.6187 z" style="display:inline;overflow:visible;visibility:visible;fill:#932279;fill-opacity:1;fill-rule:evenodd;stroke:none;stroke-width:45.61466599;marker:none"/></g></g></g><g id="g900" transform="translate(-351.30671,-902.55818)" style="stroke-width:1.52048886"><g id="g898" transform="translate(16.279512,-899.16723)" style="stroke-width:1.52048886"><g id="g894" transform="matrix(1.0666663,0,0,1,-26.935596,-4.1328125e-5)" style="stroke-width:1.52048886"><path id="path892" d="m 323.36653,2798.1614 -5.40616,5.8005 -5.40616,-5.8005 v -40.8261 h -18.01333 l 23.41949,-24.8979 23.02487,24.8979 h -17.6187 z" style="display:inline;overflow:visible;visibility:visible;fill:#efa724;fill-opacity:1;fill-rule:evenodd;stroke:none;stroke-width:45.61466599;marker:none"/></g></g></g><g id="g908" transform="rotate(90,1045.4823,1742.4169)" style="stroke-width:1.52048886"><g id="g904" transform="matrix(1.0666663,0,0,1,-26.935596,-4.1328125e-5)" style="stroke-width:1.52048886"><path id="path902" d="m 323.36653,2798.1614 -5.40616,5.8005 -5.40616,-5.8005 v -40.8261 h -18.01333 l 23.41949,-24.8979 23.02487,24.8979 h -17.6187 z" style="display:inline;overflow:visible;visibility:visible;fill:#262577;fill-opacity:1;fill-rule:evenodd;stroke:none;stroke-width:45.61466599;marker:none"/></g></g><g id="g918" transform="rotate(180,152.75931,1460.3469)" style="stroke-width:1.52048886"><g id="g916" transform="translate(16.279512,-899.16723)" style="stroke-width:1.52048886"><g id="g912" transform="matrix(1.0666663,0,0,1,-26.935596,-4.1328125e-5)" style="stroke-width:1.52048886"><path id="path910" d="m 323.36653,2798.1614 -5.40616,5.8005 -5.40616,-5.8005 v -40.8261 h -18.01333 l 23.41949,-24.8979 23.02487,24.8979 h -17.6187 z" style="display:inline;overflow:visible;visibility:visible;fill:#9ccd2a;fill-opacity:1;fill-rule:evenodd;stroke:none;stroke-width:45.61466599;marker:none"/></g></g></g><g id="g928" transform="translate(-749.79982,-1331.6428)" style="stroke-width:1.52048886"><path id="path920" d="m 671.98437,2285.7893 h 49.60645 v 49.6065 h -49.60645 z" style="fill:#9ccd2a;fill-opacity:1;stroke:#fff;stroke-width:5.38755894;stroke-linecap:butt;stroke-linejoin:miter;stroke-miterlimit:4;stroke-dashoffset:0;stroke-opacity:1"/><path id="path922" d="m 732.22076,2285.7893 h 49.60645 v 49.6065 h -49.60645 z" style="fill:#932279;fill-opacity:1;stroke:#fff;stroke-width:5.38755894;stroke-linecap:butt;stroke-linejoin:miter;stroke-miterlimit:4;stroke-dashoffset:0;stroke-opacity:1"/><path id="path924" d="m 732.22076,2346.0256 h 49.60645 v 49.6065 h -49.60645 z" style="fill:#efa724;fill-opacity:1;stroke:#fff;stroke-width:5.38755894;stroke-linecap:butt;stroke-linejoin:miter;stroke-miterlimit:4;stroke-dashoffset:0;stroke-opacity:1"/><path id="path926" d="m 671.98437,2346.0256 h 49.60645 v 49.6065 h -49.60645 z" style="fill:#262577;fill-opacity:1;stroke:#fff;stroke-width:5.38755894;stroke-linecap:butt;stroke-linejoin:miter;stroke-miterlimit:4;stroke-dashoffset:0;stroke-opacity:1"/></g><path id="path930" d="m -784.62878,642.40875 h 49.60644 v 49.60645 h -49.60644 z" transform="rotate(-45)" style="fill:none;stroke:#fff;stroke-width:5.38755894;stroke-linecap:butt;stroke-linejoin:miter;stroke-miterlimit:4;stroke-dashoffset:0;stroke-opacity:1"/><path id="path932" d="m -724.39233,642.40875 h 49.60645 v 49.60645 h -49.60645 z" transform="rotate(-45)" style="fill:none;stroke:#fff;stroke-width:5.38719511;stroke-linecap:butt;stroke-linejoin:miter;stroke-miterlimit:4;stroke-dasharray:none;stroke-dashoffset:0;stroke-opacity:1"/><path id="path934" d="m -15.377623,1009.0679 35.077058,-35.0771 35.077058,35.0771 -35.077058,35.077 z" style="fill:none;stroke:#fff;stroke-width:5.38755894;stroke-linecap:butt;stroke-linejoin:miter;stroke-miterlimit:4;stroke-dashoffset:0;stroke-opacity:1"/><path id="path936" d="m -784.62878,702.64508 h 49.60644 v 49.60645 h -49.60644 z" transform="rotate(-45)" style="fill:none;stroke:#fff;stroke-width:5.38755894;stroke-linecap:butt;stroke-linejoin:miter;stroke-miterlimit:4;stroke-dashoffset:0;stroke-opacity:1"/></g></g></svg>