<svg xmlns="http://www.w3.org/2000/svg" xmlns:svg="http://www.w3.org/2000/svg" id="Layer_1" width="128" height="128" x="0" y="0" version="1.1" viewBox="0 0 128 128" xml:space="preserve"><defs id="defs14"><filter style="color-interpolation-filters:sRGB" id="filter5249" width="1.002" height="1.002" x="-.001" y="-.001"><feGaussianBlur id="feGaussianBlur5251" stdDeviation=".116"/></filter></defs><style id="style2" type="text/css">.st0{fill:#fff}.st1{fill:#69b53f}.st2{fill:#f8f8f8}</style><path style="opacity:.2;mix-blend-mode:normal;fill:#000;fill-opacity:1;fill-rule:evenodd;stroke-width:0;filter:url(#filter5249)" id="path226" d="M 256.44478,128.03964 A 128.38364,129.13322 0 0 1 128.10038,257.17286 128.38364,129.13322 0 0 1 -0.32247052,128.11858 128.38364,129.13322 0 0 1 127.94343,-1.0935279 128.38364,129.13322 0 0 1 256.44468,127.88178 l -128.38354,0.15786 z" transform="matrix(0.49422335,0,0,0.49137908,0.70920214,1.0839969)"/><g id="g9" transform="matrix(0.49023438,0,0,0.49023438,1.25,1.25)"><circle id="circle4" cx="128" cy="128" r="128" class="st0"/><circle id="circle6" cx="128" cy="128" r="108" class="st1"/><path id="_x3C_Path_x3E_" d="m 58,63 v 90 c 0.1,22.1 17.9,39.9 40,40 h 60 c 22.1,-0.1 39.9,-17.9 40,-40 v -50 c -0.1,-16.5 -13.5,-29.9 -30,-30 -7.4,0 -14.5,2.8 -20,7.9 -5.5,-5 -12.6,-7.8 -20,-7.9 -16.5,0.1 -29.9,13.5 -30,30 v 50 h 20 v -50 c 0,-5.5 4.5,-10 10,-10 5.5,0 10,4.5 10,10 v 50 h 20 v -50 c 0,-5.5 4.5,-10 10,-10 5.5,0 10,4.5 10,10 v 50 c 0.1,11 -8.8,19.9 -19.7,20 -0.1,0 -0.2,0 -0.3,0 H 98 c -11,0.1 -19.9,-8.8 -20,-19.7 0,-0.1 0,-0.2 0,-0.3 V 63 Z" class="st2"/></g></svg>