<svg xmlns="http://www.w3.org/2000/svg" xmlns:svg="http://www.w3.org/2000/svg" xml:space="preserve" style="enable-background:new 0 0 298 269.9" id="svg2" width="128" height="128" x="0" y="0" version="1.1" viewBox="0 0 298 269.9"><metadata id="metadata13"/><style id="style2" type="text/css">.st1{fill-rule:evenodd;clip-rule:evenodd;fill:#fff}</style><g id="layer1" transform="translate(-1.0234811,-781.41972)"><g id="g4253" transform="matrix(1.0347182,0,0,1.0347182,-33.638111,-57.507629)"><path id="rect4234-3" d="M 60.998189,836.5504 H 293.99961 v 209.3003 H 60.998189 Z" style="stroke-width:1"/><path id="path3417-0" d="m 230.19961,869.3504 -46.2,53.90001 -46.1,-53.70001 -18.9,16.20001 48.6,56.6 -7.1,8.3 -12,-14.30001 -32.9,38.90001 -32.900003,38.79999 h 65.800003 41.6 24.1 17 41.1 l -20.5,-24.69999 -20.5,-24.7 -5.7,6.8 -31.6,-36.8 47.7,-55.6 z m -52.7,84.60001 31.8,37.1 -7.3,8.7 -20.7,-24.5 -11,-13 z" class="st1" style="stroke-width:1"/></g></g></svg>