<svg xmlns="http://www.w3.org/2000/svg" xmlns:svg="http://www.w3.org/2000/svg" id="svg25" width="512" height="512" version="1.1" viewBox="0 0 512 512" xml:space="preserve"><defs id="defs11"><style id="style9">.cls-2{fill:#fff}</style></defs><rect style="fill:#1aa3ff;fill-opacity:1;stroke:none;stroke-width:7.35012;stroke-opacity:1" id="rect297" width="512" height="512" x="0" y="0" ry="88.527"/><g id="g872" transform="matrix(6.9913211,0,0,6.9913211,1.8654778,1.8654736)"><path id="path10" d="M 41.36,36.32 A 12,12 0 0 1 63.5,30 9.52,9.52 0 1 0 62.71,43.44 9.81,9.81 0 0 0 63.5,42.65 12,12 0 0 1 41.36,36.32" class="cls-2" style="fill:#fff"/><path id="path12" d="M 16.63,50.68 A 12,12 0 0 1 38.77,44.35 9.52,9.52 0 1 0 38,57.79 8.2,8.2 0 0 0 38.78,57.01 12,12 0 0 1 16.64,50.68" class="cls-2" style="fill:#fff"/><path id="path14" d="M 16.63,22 A 12,12 0 0 1 38.77,15.67 9.52,9.52 0 1 0 38,29.12 9.81,9.81 0 0 0 38.79,28.33 12,12 0 0 1 16.63,22" class="cls-2" style="fill:#fff"/></g></svg>